<svg width="181" height="74" viewBox="0 0 181 74" fill="none" xmlns="http://www.w3.org/2000/svg">
<path d="M27.0288 14.72C29.0821 16.24 30.7088 18.1467 31.9088 20.44C33.1088 22.7333 33.7088 25.24 33.7088 27.96V30H26.6288V27.96C26.6288 26.6533 26.3754 25.4267 25.8688 24.28C25.3888 23.1333 24.7221 22.1333 23.8688 21.28C23.0154 20.4267 22.0154 19.76 20.8688 19.28C19.7221 18.7733 18.4954 18.52 17.1888 18.52H16.0688V30H8.98875V18.52H5.06875V11.48H8.98875V-2.38419e-06H16.0688V11.48H16.5088C17.8154 11.48 19.0421 11.24 20.1888 10.76C21.3354 10.2533 22.3354 9.57333 23.1888 8.72C24.0421 7.86667 24.7088 6.86667 25.1888 5.72C25.6954 4.57333 25.9488 3.34666 25.9488 2.04V-2.38419e-06H33.0288V2.04C33.0288 4.6 32.4821 6.97333 31.3888 9.16C30.3221 11.3467 28.8688 13.2 27.0288 14.72ZM52.6034 -2.38419e-06C53.7501 -2.38419e-06 54.8168 0.226665 55.8034 0.679998C56.8168 1.10667 57.6968 1.69333 58.4434 2.44C59.1901 3.18667 59.7768 4.06667 60.2034 5.08C60.6301 6.06667 60.8434 7.12 60.8434 8.24V30H44.3634C43.2168 30 42.1368 29.7867 41.1234 29.36C40.1368 28.9067 39.2701 28.3067 38.5234 27.56C37.7768 26.8133 37.1901 25.9467 36.7634 24.96C36.3368 23.9467 36.1234 22.88 36.1234 21.76V-2.38419e-06H52.6034ZM53.7634 8.24C53.7634 7.92 53.6434 7.65333 53.4034 7.44C53.1901 7.2 52.9234 7.08 52.6034 7.08H43.2034V21.76C43.2034 22.08 43.3101 22.36 43.5234 22.6C43.7634 22.8133 44.0434 22.92 44.3634 22.92H53.7634V8.24ZM83.1638 18.48C84.8438 19.84 86.1771 21.4933 87.1638 23.44C88.1771 25.3867 88.6838 27.5733 88.6838 30H81.6038C81.6038 28.8 81.3771 27.68 80.9238 26.64C80.4704 25.5733 79.8438 24.6533 79.0438 23.88C78.2704 23.08 77.3504 22.4533 76.2838 22C75.2438 21.5467 74.1238 21.32 72.9238 21.32H71.5238V30H64.4438V-2.38419e-06H87.9638V9.4C87.9638 11.32 87.5238 13.0667 86.6438 14.64C85.7638 16.2133 84.6038 17.4933 83.1638 18.48ZM71.5238 14.64H76.4438C77.0571 14.64 77.6304 14.52 78.1638 14.28C78.6971 14.04 79.1638 13.72 79.5638 13.32C79.9638 12.92 80.2838 12.4533 80.5238 11.92C80.7638 11.3867 80.8838 10.8133 80.8838 10.2V7.08H71.5238V14.64ZM91.8656 -2.38419e-06H116.626V7.6C116.626 9.12 116.332 10.5467 115.746 11.88C115.186 13.1867 114.412 14.3333 113.426 15.32C112.439 16.3067 111.279 17.0933 109.946 17.68C108.612 18.24 107.199 18.52 105.706 18.52H98.9456V19.4C98.9456 20.36 99.2923 21.1867 99.9856 21.88C100.679 22.5733 101.506 22.92 102.466 22.92H116.626V30H102.466C100.999 30 99.6256 29.72 98.3456 29.16C97.0656 28.6 95.9456 27.84 94.9856 26.88C94.0256 25.92 93.2656 24.8 92.7056 23.52C92.1456 22.24 91.8656 20.8667 91.8656 19.4V-2.38419e-06ZM98.9456 11.88H105.706C106.239 11.88 106.732 11.7867 107.186 11.6C107.666 11.3867 108.079 11.1067 108.426 10.76C108.772 10.3867 109.039 9.97333 109.226 9.52C109.439 9.04 109.546 8.53333 109.546 8V7.08H98.9456V11.88ZM144.204 21.44C144.204 21.84 144.35 22.1867 144.644 22.48C144.937 22.7733 145.284 22.92 145.684 22.92H146.644V30H145.684C144.537 30 143.457 29.8 142.444 29.4C141.457 28.9733 140.577 28.3867 139.804 27.64C138.95 28.3867 137.99 28.9733 136.924 29.4C135.884 29.8 134.764 30 133.564 30H128.884C127.577 30 126.35 29.76 125.204 29.28C124.057 28.7733 123.057 28.0933 122.204 27.24C121.35 26.3867 120.67 25.3867 120.164 24.24C119.684 23.0933 119.444 21.8667 119.444 20.56V10.92H137.124V10.6C137.124 10.12 137.03 9.66667 136.844 9.24C136.657 8.81333 136.404 8.44 136.084 8.12C135.764 7.8 135.377 7.54667 134.924 7.36C134.497 7.17333 134.044 7.08 133.564 7.08H120.644V-2.38419e-06H133.564C135.03 -2.38419e-06 136.404 0.279998 137.684 0.839999C138.99 1.4 140.124 2.16 141.084 3.12C142.044 4.08 142.804 5.2 143.364 6.48C143.924 7.76 144.204 9.13333 144.204 10.6V21.44ZM134.764 22.92C135.404 22.92 135.95 22.6933 136.404 22.24C136.884 21.7867 137.124 21.2267 137.124 20.56V18H126.524V20.56C126.524 21.2267 126.75 21.7867 127.204 22.24C127.684 22.6933 128.244 22.92 128.884 22.92H134.764ZM175.914 27.92L170.194 32.08C169.794 31.6 169.381 30.9867 168.954 30.24C168.528 29.52 168.128 28.6533 167.754 27.64C167.408 26.6 167.114 25.4267 166.874 24.12C166.661 22.7867 166.554 21.2933 166.554 19.64V7.08H160.434C159.448 7.08 158.608 7.42667 157.914 8.12C157.248 8.81333 156.914 9.64 156.914 10.6V30H149.834V10.6C149.834 9.13333 150.114 7.76 150.674 6.48C151.234 5.2 151.994 4.08 152.954 3.12C153.914 2.16 155.034 1.4 156.314 0.839999C157.594 0.279998 158.968 -2.38419e-06 160.434 -2.38419e-06H173.634V19.64C173.634 20.28 173.661 20.9867 173.714 21.76C173.794 22.5067 173.914 23.2533 174.074 24C174.261 24.7467 174.501 25.4667 174.794 26.16C175.088 26.8267 175.461 27.4133 175.914 27.92Z" fill="#663E98"/>
<path d="M39.9095 44V74H32.8295V51.72C31.8695 52.0667 30.9762 52.56 30.1495 53.2C29.3495 53.84 28.6562 54.5733 28.0695 55.4C27.5095 56.2267 27.0562 57.1333 26.7095 58.12C26.3895 59.1067 26.2295 60.1467 26.2295 61.24V74H19.1495V61.24C19.1495 60.1467 18.9762 59.1067 18.6295 58.12C18.3095 57.1333 17.8562 56.2267 17.2695 55.4C16.7095 54.5733 16.0162 53.84 15.1895 53.2C14.3895 52.56 13.5095 52.0667 12.5495 51.72V74H5.46953V51.08H0.869531V44H8.98953C11.8162 44 14.4029 44.6133 16.7495 45.84C19.1229 47.0667 21.1095 48.72 22.7095 50.8C24.2829 48.72 26.2429 47.0667 28.5895 45.84C30.9629 44.6133 33.5629 44 36.3895 44H39.9095ZM68.2467 65.44C68.2467 65.84 68.3934 66.1867 68.6867 66.48C68.9801 66.7733 69.3267 66.92 69.7267 66.92H70.6867V74H69.7267C68.5801 74 67.5001 73.8 66.4867 73.4C65.5001 72.9733 64.6201 72.3867 63.8467 71.64C62.9934 72.3867 62.0334 72.9733 60.9667 73.4C59.9267 73.8 58.8067 74 57.6067 74H52.9267C51.6201 74 50.3934 73.76 49.2467 73.28C48.1001 72.7733 47.1001 72.0933 46.2467 71.24C45.3934 70.3867 44.7134 69.3867 44.2067 68.24C43.7267 67.0933 43.4867 65.8667 43.4867 64.56V54.92H61.1667V54.6C61.1667 54.12 61.0734 53.6667 60.8867 53.24C60.7001 52.8133 60.4467 52.44 60.1267 52.12C59.8067 51.8 59.4201 51.5467 58.9667 51.36C58.5401 51.1733 58.0867 51.08 57.6067 51.08H44.6867V44H57.6067C59.0734 44 60.4467 44.28 61.7267 44.84C63.0334 45.4 64.1667 46.16 65.1267 47.12C66.0867 48.08 66.8467 49.2 67.4067 50.48C67.9667 51.76 68.2467 53.1333 68.2467 54.6V65.44ZM58.8067 66.92C59.4467 66.92 59.9934 66.6933 60.4467 66.24C60.9267 65.7867 61.1667 65.2267 61.1667 64.56V62H50.5667V64.56C50.5667 65.2267 50.7934 65.7867 51.2467 66.24C51.7267 66.6933 52.2867 66.92 52.9267 66.92H58.8067ZM73.4867 54.6C73.4867 53.1333 73.7667 51.76 74.3267 50.48C74.8867 49.2 75.6467 48.08 76.6067 47.12C77.5667 46.16 78.6867 45.4 79.9667 44.84C81.2467 44.28 82.6201 44 84.0867 44H98.2467V51.08H84.0867C83.6067 51.08 83.1534 51.1733 82.7267 51.36C82.3001 51.5467 81.9267 51.8 81.6067 52.12C81.2867 52.44 81.0334 52.8133 80.8467 53.24C80.6601 53.6667 80.5667 54.12 80.5667 54.6V55.48H98.2467V63.4C98.2467 64.8667 97.9667 66.24 97.4067 67.52C96.8467 68.8 96.0867 69.92 95.1267 70.88C94.1667 71.84 93.0334 72.6 91.7267 73.16C90.4467 73.72 89.0734 74 87.6067 74H73.4867V66.92H87.6067C88.0867 66.92 88.5401 66.8267 88.9667 66.64C89.4201 66.4533 89.8067 66.2 90.1267 65.88C90.4467 65.56 90.7001 65.1867 90.8867 64.76C91.0734 64.3333 91.1667 63.88 91.1667 63.4V62.52H73.4867V54.6ZM100.245 44H125.565V51.08H116.445V74H109.365V51.08H100.245V44ZM127.549 44H152.309V51.6C152.309 53.12 152.016 54.5467 151.429 55.88C150.869 57.1867 150.096 58.3333 149.109 59.32C148.123 60.3067 146.963 61.0933 145.629 61.68C144.296 62.24 142.883 62.52 141.389 62.52H134.629V63.4C134.629 64.36 134.976 65.1867 135.669 65.88C136.363 66.5733 137.189 66.92 138.149 66.92H152.309V74H138.149C136.683 74 135.309 73.72 134.029 73.16C132.749 72.6 131.629 71.84 130.669 70.88C129.709 69.92 128.949 68.8 128.389 67.52C127.829 66.24 127.549 64.8667 127.549 63.4V44ZM134.629 55.88H141.389C141.923 55.88 142.416 55.7867 142.869 55.6C143.349 55.3867 143.763 55.1067 144.109 54.76C144.456 54.3867 144.723 53.9733 144.909 53.52C145.123 53.04 145.229 52.5333 145.229 52V51.08H134.629V55.88ZM174.629 62.48C176.309 63.84 177.642 65.4933 178.629 67.44C179.642 69.3867 180.149 71.5733 180.149 74H173.069C173.069 72.8 172.842 71.68 172.389 70.64C171.935 69.5733 171.309 68.6533 170.509 67.88C169.735 67.08 168.815 66.4533 167.749 66C166.709 65.5467 165.589 65.32 164.389 65.32H162.989V74H155.909V44H179.429V53.4C179.429 55.32 178.989 57.0667 178.109 58.64C177.229 60.2133 176.069 61.4933 174.629 62.48ZM162.989 58.64H167.909C168.522 58.64 169.095 58.52 169.629 58.28C170.162 58.04 170.629 57.72 171.029 57.32C171.429 56.92 171.749 56.4533 171.989 55.92C172.229 55.3867 172.349 54.8133 172.349 54.2V51.08H162.989V58.64Z" fill="#B67DFF"/>
</svg>
