<svg width="18" height="18" viewBox="0 0 18 18" fill="none" xmlns="http://www.w3.org/2000/svg">
<circle cx="8.947" cy="8.947" r="8.947" fill="white"/>
<path d="M16.0002 9C16.0002 7.14343 15.2627 5.3629 13.9499 4.05011C12.6371 2.73732 10.8566 1.9998 9 1.9998C7.14343 1.9998 5.3629 2.73732 4.05011 4.05011C2.73732 5.3629 1.9998 7.14343 1.9998 9C1.9998 10.8566 2.73732 12.6371 4.05011 13.9499C5.3629 15.2627 7.14343 16.0002 9 16.0002C10.8566 16.0002 12.6371 15.2627 13.9499 13.9499C15.2627 12.6371 16.0002 10.8566 16.0002 9ZM11.2932 6.7932C11.386 6.70042 11.4961 6.62682 11.6173 6.57661C11.7386 6.5264 11.8685 6.50056 11.9997 6.50056C12.1309 6.50056 12.2608 6.5264 12.3821 6.57661C12.5033 6.62682 12.6134 6.70042 12.7062 6.7932C12.799 6.88598 12.8726 6.99612 12.9228 7.11734C12.973 7.23857 12.9988 7.36849 12.9988 7.4997C12.9988 7.63091 12.973 7.76083 12.9228 7.88206C12.8726 8.00328 12.799 8.11342 12.7062 8.2062L9.7074 11.2068C9.6146 11.2999 9.50434 11.3737 9.38295 11.4241C9.26157 11.4745 9.13143 11.5004 9 11.5004C8.86857 11.5004 8.73843 11.4745 8.61705 11.4241C8.49566 11.3737 8.3854 11.2999 8.2926 11.2068L5.2929 8.208L5.2245 8.1315C5.06668 7.93979 4.98591 7.69617 4.99794 7.44814C5.00998 7.20012 5.11395 6.96547 5.28959 6.78994C5.46524 6.6144 5.69996 6.51058 5.94799 6.4987C6.19602 6.48683 6.43959 6.56775 6.6312 6.7257L6.7068 6.7941L9 9.0855L11.2932 6.7932ZM18 9C18 13.9707 13.9707 18 9 18C4.0293 18 0 13.9707 0 9C0 4.0293 4.0293 0 9 0C13.9707 0 18 4.0293 18 9Z" fill="#B57CFF"/>
</svg>
