<svg width="30" height="30" viewBox="0 0 30 30" fill="none" xmlns="http://www.w3.org/2000/svg">
<mask id="path-1-inside-1_82_710" fill="white">
<path d="M24.5096 20.4904C23.5459 22.1597 22.1597 23.5458 20.4904 24.5096C18.8212 25.4734 16.9276 25.9807 15.0001 25.9808C13.0726 25.9808 11.1791 25.4734 9.50978 24.5097C7.84049 23.546 6.4543 22.1598 5.49051 20.4906L15 15L24.5096 20.4904Z"/>
</mask>
<path d="M24.5096 20.4904C23.5459 22.1597 22.1597 23.5458 20.4904 24.5096C18.8212 25.4734 16.9276 25.9807 15.0001 25.9808C13.0726 25.9808 11.1791 25.4734 9.50978 24.5097C7.84049 23.546 6.4543 22.1598 5.49051 20.4906L15 15L24.5096 20.4904Z" fill="#D9D9D9" stroke="white" stroke-width="2" mask="url(#path-1-inside-1_82_710)"/>
<mask id="path-2-inside-2_82_710" fill="white">
<path d="M5.49039 20.4904C4.52664 18.8211 4.01926 16.9276 4.01925 15.0001C4.01924 13.0725 4.5266 11.179 5.49034 9.50972C6.45407 7.84044 7.84023 6.45425 9.50948 5.49047C11.1787 4.52669 13.0723 4.01928 14.9998 4.01924L15 15L5.49039 20.4904Z"/>
</mask>
<path d="M5.49039 20.4904C4.52664 18.8211 4.01926 16.9276 4.01925 15.0001C4.01924 13.0725 4.5266 11.179 5.49034 9.50972C6.45407 7.84044 7.84023 6.45425 9.50948 5.49047C11.1787 4.52669 13.0723 4.01928 14.9998 4.01924L15 15L5.49039 20.4904Z" fill="#D9D9D9" stroke="white" stroke-width="2" mask="url(#path-2-inside-2_82_710)"/>
<mask id="path-3-inside-3_82_710" fill="white">
<path d="M15 4.01924C16.9275 4.01924 18.8211 4.52661 20.4903 5.49035C22.1596 6.4541 23.5458 7.84026 24.5096 9.50952C25.4733 11.1788 25.9807 13.0723 25.9808 14.9998C25.9808 16.9273 25.4735 18.8209 24.5097 20.4902L15 15L15 4.01924Z"/>
</mask>
<path d="M15 4.01924C16.9275 4.01924 18.8211 4.52661 20.4903 5.49035C22.1596 6.4541 23.5458 7.84026 24.5096 9.50952C25.4733 11.1788 25.9807 13.0723 25.9808 14.9998C25.9808 16.9273 25.4735 18.8209 24.5097 20.4902L15 15L15 4.01924Z" fill="#22C45D" stroke="white" stroke-width="2" mask="url(#path-3-inside-3_82_710)"/>
</svg>
