<svg width="26" height="29" viewBox="0 0 26 29" fill="none" xmlns="http://www.w3.org/2000/svg">
<path d="M1.09825 13.5434C0.96295 13.6699 0.83819 13.7859 0.674766 13.9581C0.260064 14.3482 0.0158345 14.8894 0 15.4605C0.0913723 16.3918 0.752094 17.1702 1.65529 17.4127C1.75369 17.4584 1.85386 17.4935 1.94347 17.5392C1.91712 17.6007 1.88724 17.6604 1.85386 17.7184C1.57798 18.1191 1.5112 18.6269 1.67462 19.0856C1.82925 19.4142 2.09284 19.6777 2.42145 19.8324C2.23343 20.0749 2.11043 20.3596 2.06123 20.66C1.9927 21.1046 2.14381 21.5527 2.46538 21.8655C2.4566 21.9199 2.43024 22.0552 2.40213 22.1536C2.17018 22.9989 2.37577 23.9038 2.95215 24.5645C3.46349 25.1146 4.22436 25.357 4.95711 25.2042C5.48779 25.1146 5.99211 25.0425 6.43314 24.988C6.6563 24.9582 6.88122 25.0302 7.04465 25.1866C7.2274 25.35 7.32581 25.589 7.31526 25.8332L7.26957 27.6414C7.26255 27.8224 7.33108 27.9999 7.45936 28.1281C7.58587 28.2599 7.7616 28.3355 7.94433 28.3355H19.9916C20.1744 28.3337 20.3483 28.2599 20.4748 28.1299C20.6013 27.9999 20.6716 27.8241 20.6664 27.6414C20.6488 26.9403 20.6031 26.2198 20.5311 25.6171C20.3729 24.2974 20.7894 22.9743 21.6733 21.9832C25.5954 17.5744 27.792 10.1888 24.1298 5.16849C20.4766 0.165777 12.4163 -1.55263 7.20623 1.56097V1.55921C4.26641 3.41657 2.47927 6.6465 2.46532 10.1238C2.47411 10.3487 2.50047 10.5736 2.52858 10.8073C2.5813 11.0867 2.58481 11.3731 2.53736 11.6543C2.2158 12.3906 1.72205 13.039 1.09825 13.5434ZM6.37852 8.11869C6.50856 8.05367 6.57533 7.90782 6.54194 7.76725C6.52086 7.65127 6.50856 7.53354 6.50504 7.41757C6.52261 6.58463 7.13941 5.88706 7.96353 5.77105C7.93365 5.91865 7.9196 6.06977 7.91784 6.22089C7.92135 6.4177 7.94947 6.6145 7.99867 6.80429C7.98462 6.85525 7.98462 6.90797 7.99867 6.95717C8.24292 7.67058 7.92311 8.45254 7.25184 8.79343C7.17804 8.82682 7.12005 8.88832 7.09194 8.96388C7.06206 9.03944 7.06558 9.12379 7.09896 9.19759C7.14817 9.30829 7.25711 9.37858 7.37836 9.37858C7.42053 9.37858 7.46446 9.36804 7.50312 9.35046C8.0988 9.06229 8.51878 8.50701 8.63825 7.85685C8.72787 7.94295 8.82276 8.02027 8.92468 8.09231C9.06701 8.1872 9.2603 8.15206 9.35695 8.00973C9.40088 7.94295 9.4167 7.86037 9.40088 7.77953C9.38331 7.70046 9.33587 7.63193 9.26734 7.588C8.81047 7.28224 8.53283 6.7709 8.52932 6.22088C8.52932 5.99771 8.57501 5.77631 8.66463 5.57247C8.94578 4.95043 9.56607 4.55155 10.2479 4.55506C10.4534 4.55682 10.6555 4.5902 10.8506 4.65522C11.0017 4.70794 11.1686 4.63765 11.2371 4.49356C11.5148 3.86625 12.1368 3.46382 12.8204 3.46737C13.0365 3.47089 13.2491 3.50954 13.4512 3.58335C13.098 3.94006 12.8801 4.40746 12.8291 4.90652C12.8151 5.07697 12.9398 5.22809 13.1085 5.24917C13.2755 5.25445 13.4196 5.13495 13.4424 4.96978C13.4881 4.48305 13.7534 4.04198 14.1611 3.7731C14.8429 3.32502 15.7391 3.39179 16.3471 3.93477C16.442 4.02439 16.5843 4.04372 16.6985 3.98046C16.9533 3.85218 17.2327 3.78365 17.5174 3.78189C18.3503 3.7731 19.069 4.36529 19.2183 5.1859C19.2289 5.26497 19.2693 5.33877 19.3343 5.38798C19.3993 5.43542 19.4802 5.45827 19.5592 5.44597C19.6278 5.43894 19.6981 5.43542 19.7666 5.43718C20.5925 5.42664 21.3059 6.01177 21.4588 6.8236C20.9052 6.74628 20.3412 6.86402 19.865 7.15571C19.7964 7.19788 19.7472 7.26817 19.7279 7.34725C19.7103 7.42632 19.7244 7.50891 19.7666 7.57919C19.8615 7.71626 20.0477 7.75667 20.19 7.66881C20.6416 7.39293 21.1899 7.33143 21.6924 7.49836C22.3742 7.71977 22.8381 8.3541 22.8434 9.07282C22.8434 9.3364 22.7784 9.59472 22.6554 9.82842C22.6009 9.91628 22.6009 10.027 22.6554 10.1166C22.7801 10.3503 22.8452 10.6139 22.8434 10.881C22.8364 11.5048 22.4779 12.0723 21.9174 12.3465C21.8998 11.9792 21.826 11.6137 21.7012 11.2676C21.6415 11.1077 21.464 11.0286 21.3058 11.0866C21.1459 11.1463 21.0651 11.3238 21.1249 11.4837C21.2654 11.8474 21.3357 12.2358 21.3322 12.6259C21.2883 13.7839 20.6697 14.8417 19.6839 15.4497C18.6964 16.056 17.4734 16.1315 16.4191 15.6483C16.2855 15.5868 16.1274 15.6289 16.0413 15.7484C15.9499 15.8644 15.9622 16.0314 16.0694 16.135C16.5139 16.6657 16.8426 17.2842 17.0323 17.952H14.4668C13.6058 16.5814 12.3002 15.5464 10.7696 15.0192C9.63624 14.543 8.95266 14.246 8.95266 12.8509C8.95266 12.1585 9.28653 11.5066 9.85235 11.106C9.92088 11.0603 9.96832 10.9882 9.98238 10.9074C9.9982 10.8266 9.97887 10.744 9.93142 10.6772C9.88398 10.6104 9.81194 10.5647 9.7311 10.5524C9.64852 10.5401 9.56592 10.5612 9.50091 10.6104C9.04054 10.9302 8.69083 11.3871 8.50279 11.916C8.15838 12.1146 7.76653 12.2218 7.36941 12.2218C6.15519 12.2393 5.15532 11.2746 5.12896 10.0621C5.13072 9.22571 5.61941 8.4666 6.37852 8.11869Z" fill="#7F4BF7"/>
<path d="M17.2751 8.93794C17.1943 9.08379 17.2453 9.26829 17.3911 9.35088C17.7074 9.51255 17.9446 9.79545 18.0483 10.1346C18.1502 10.4562 18.1168 10.8076 17.9587 11.1064C17.9183 11.1766 17.9095 11.261 17.9341 11.3401C17.9569 11.4174 18.0114 11.4824 18.0852 11.5193C18.1274 11.5457 18.1783 11.558 18.2275 11.5562C18.34 11.558 18.4419 11.4947 18.4893 11.3945C18.7178 10.9816 18.7723 10.4966 18.6422 10.045C19.0446 9.58814 19.7106 9.47217 20.243 9.76561C20.3924 9.84469 20.5787 9.78846 20.6577 9.63909C20.7368 9.48973 20.6806 9.30522 20.5312 9.22615C19.8371 8.84483 18.9814 8.93445 18.3822 9.45107C18.2047 9.18398 17.9675 8.96609 17.6881 8.81144C17.6178 8.77102 17.5334 8.76223 17.4544 8.78508C17.377 8.80968 17.312 8.86414 17.2751 8.93794Z" fill="#7F4BF7"/>
<path d="M12.5778 7.63239C12.8748 7.6359 13.1647 7.54453 13.4054 7.37232C13.4739 7.32839 13.5214 7.25811 13.5372 7.17903C13.5513 7.0982 13.5337 7.01561 13.4863 6.94884C13.4406 6.88031 13.3685 6.83286 13.2877 6.81705C13.2069 6.80299 13.1225 6.82056 13.054 6.868C12.6885 7.12983 12.1807 7.04899 11.9118 6.68877C11.8643 6.62199 11.7905 6.57807 11.7097 6.56576C11.6289 6.55522 11.5463 6.57631 11.4795 6.62551C11.346 6.72918 11.3178 6.92072 11.418 7.05778C11.6904 7.42152 12.1209 7.63594 12.5778 7.63239Z" fill="#7F4BF7"/>
<path d="M15.2594 8.42471H15.3314C15.472 8.42647 15.5932 8.32807 15.6196 8.191C15.7848 7.49514 16.4753 7.05587 17.1747 7.20171C17.2538 7.22104 17.3364 7.20874 17.4049 7.16656C17.4734 7.12439 17.5226 7.05586 17.5402 6.97678C17.5595 6.89946 17.5455 6.81688 17.5015 6.74835C17.4576 6.67982 17.3891 6.63237 17.31 6.61656C16.2856 6.38636 15.2664 7.02423 15.0257 8.04693C14.987 8.21562 15.0907 8.3843 15.2594 8.42471Z" fill="#7F4BF7"/>
<path d="M15.124 14.3905C15.2382 14.3888 15.3436 14.322 15.3946 14.2183C15.5597 13.8862 15.8567 13.6349 16.2134 13.526C16.5789 13.4153 16.9743 13.4575 17.3099 13.6437C17.3802 13.6806 17.461 13.6912 17.5366 13.6683C17.6139 13.6472 17.6772 13.5945 17.7158 13.526C17.7562 13.4539 17.7668 13.3696 17.7457 13.2905C17.7229 13.2114 17.6701 13.1429 17.5981 13.1025C17.1236 12.8442 16.5631 12.7862 16.0465 12.9426C15.5281 13.1007 15.0958 13.4592 14.8446 13.9407C14.7743 14.0918 14.8323 14.2728 14.9799 14.3536C15.0238 14.38 15.073 14.3923 15.124 14.3905Z" fill="#7F4BF7"/>
<path d="M12.0299 9.89202C11.9561 9.85687 11.8735 9.8516 11.7979 9.87796C11.7206 9.90608 11.6591 9.96231 11.624 10.0344C11.5871 10.1064 11.58 10.1907 11.6064 10.2663C11.631 10.3419 11.6872 10.4051 11.7593 10.4403C12.5272 10.8058 12.8523 11.723 12.4885 12.4909C12.4165 12.6403 12.4762 12.8195 12.6238 12.8968C12.6678 12.9179 12.717 12.9302 12.7679 12.932C12.8804 12.932 12.9841 12.8652 13.028 12.7615C13.2986 12.208 13.3144 11.5649 13.0737 10.9973C13.267 10.7214 13.5499 10.5176 13.8732 10.4227C13.954 10.4034 14.0208 10.3507 14.0612 10.2786C14.0999 10.2066 14.1069 10.1222 14.0805 10.0449C14.0331 9.88851 13.8697 9.79714 13.7115 9.83755C13.3337 9.94123 12.9946 10.1503 12.731 10.4403C12.5324 10.2171 12.2935 10.0309 12.0299 9.89202Z" fill="#7F4BF7"/>
</svg>
