<svg width="23" height="18" viewBox="0 0 23 18" fill="none" xmlns="http://www.w3.org/2000/svg">
<path d="M19.0659 1.48463C18.8014 1.22005 18.3724 1.22005 18.1076 1.48463C17.843 1.74922 17.843 2.17822 18.1076 2.44296C19.8311 4.16648 20.7805 6.46212 20.7805 8.90669C20.7805 11.3513 19.8312 13.6469 18.1076 15.3704C17.843 15.635 17.843 16.064 18.1076 16.3287C18.2399 16.4612 18.4133 16.5274 18.5868 16.5274C18.7603 16.5274 18.9337 16.4612 19.0658 16.3287C21.0454 14.3492 22.1355 11.7133 22.1355 8.90682C22.1357 6.09974 21.0455 3.46406 19.066 1.48447L19.0659 1.48463Z" fill="#413D66"/>
<path d="M16.8937 3.65671C16.6291 3.39196 16.2001 3.39213 15.9354 3.65655C15.6706 3.92114 15.6706 4.35013 15.9354 4.61488C18.3018 6.98135 18.3018 10.832 15.9354 13.1986C15.6706 13.4632 15.6706 13.8922 15.9354 14.157C16.0677 14.2892 16.2411 14.3554 16.4144 14.3554C16.5878 14.3554 16.7613 14.2892 16.8936 14.157C19.7886 11.2619 19.7886 6.55164 16.8937 3.6568L16.8937 3.65671Z" fill="#413D66"/>
<path d="M14.7217 5.82835C14.4571 5.56377 14.0281 5.56377 13.7634 5.82835C13.4988 6.09294 13.4988 6.52194 13.7634 6.78668C14.9321 7.95573 14.9321 9.85755 13.7634 11.0263C13.4988 11.2909 13.4988 11.7199 13.7634 11.9846C13.8957 12.1169 14.0691 12.1831 14.2424 12.1831C14.4158 12.1831 14.5893 12.1169 14.7216 11.9846C16.419 10.2872 16.419 7.52569 14.7217 5.82819L14.7217 5.82835Z" fill="#413D66"/>
<path d="M0 6.26162V11.5516C0 11.9259 0.303312 12.2292 0.677597 12.2292H4.12968V5.58411H0.677597C0.3033 5.58411 0 5.88742 0 6.2617V6.26162Z" fill="#413D66"/>
<path d="M11.9344 0.0654348C11.698 -0.0468565 11.4179 -0.0126505 11.2153 0.152879L5.48511 4.8332V12.98L11.2153 17.6603C11.3387 17.761 11.4907 17.8131 11.6442 17.8131C11.7429 17.8131 11.842 17.7916 11.9344 17.7477C12.1709 17.6356 12.3216 17.3973 12.3216 17.1355V0.677544C12.3216 0.41586 12.1708 0.17742 11.9344 0.0652861L11.9344 0.0654348Z" fill="#413D66"/>
</svg>
