<svg width="19" height="26" viewBox="0 0 19 26" fill="none" xmlns="http://www.w3.org/2000/svg">
<g clip-path="url(#clip0_1_2804)">
<path d="M9.49998 11.5556C12.4981 11.5556 14.9286 8.96876 14.9286 5.77778C14.9286 2.5868 12.4981 0 9.49998 0C6.50186 0 4.07141 2.5868 4.07141 5.77778C4.07141 8.96876 6.50186 11.5556 9.49998 11.5556Z" fill="#7F4BF7"/>
<path d="M19.0001 20.2222V21.6667C19.0001 22.8159 18.5712 23.9181 17.8076 24.7308C17.0441 25.5435 16.0085 26 14.9287 26H4.07155C2.99174 26 1.95616 25.5435 1.19262 24.7308C0.429077 23.9181 0.00012207 22.8159 0.00012207 21.6667V20.2222C0.00012207 18.3068 0.715043 16.4698 1.98761 15.1153C3.26018 13.7609 4.98615 13 6.78584 13H12.2144C14.0141 13 15.7401 13.7609 17.0126 15.1153C18.2852 16.4698 19.0001 18.3068 19.0001 20.2222Z" fill="#7F4BF7"/>
</g>
<defs>
<clipPath id="clip0_1_2804">
<rect width="19" height="26" fill="white"/>
</clipPath>
</defs>
</svg>
