<svg width="70" height="72" viewBox="0 0 70 72" fill="none" xmlns="http://www.w3.org/2000/svg">
<circle cx="34.7904" cy="36.4671" r="34.7904" fill="#6E2FFF"/>
<path d="M48.8211 23.3937C48.3608 22.9334 47.6146 22.9334 47.154 23.3937C46.6938 23.8539 46.6938 24.6002 47.154 25.0607C50.1521 28.0588 51.8035 32.0521 51.8035 36.3045C51.8035 40.5569 50.1522 44.5502 47.154 47.5483C46.6938 48.0085 46.6938 48.7548 47.154 49.2153C47.3842 49.4457 47.6858 49.5608 47.9876 49.5608C48.2893 49.5608 48.591 49.4457 48.8208 49.2153C52.2644 45.7718 54.1607 41.1866 54.1607 36.3047C54.161 31.4217 52.2646 26.8369 48.8211 23.3934L48.8211 23.3937Z" fill="white"/>
<path d="M45.0425 27.1718C44.5822 26.7112 43.836 26.7115 43.3754 27.1715C42.9149 27.6317 42.9149 28.378 43.3754 28.8385C47.492 32.955 47.492 39.6534 43.3754 43.7701C42.9149 44.2304 42.9149 44.9766 43.3754 45.4371C43.6056 45.6673 43.9073 45.7823 44.2087 45.7823C44.5104 45.7823 44.8121 45.6673 45.0422 45.4371C50.0782 40.4012 50.0782 32.2075 45.0425 27.1719L45.0425 27.1718Z" fill="white"/>
<path d="M41.2642 30.9497C40.8039 30.4894 40.0577 30.4894 39.5971 30.9497C39.1369 31.4099 39.1369 32.1562 39.5971 32.6167C41.6302 34.6503 41.6302 37.9586 39.5971 39.9916C39.1369 40.4519 39.1369 41.1981 39.5971 41.6587C39.8273 41.8888 40.129 42.0039 40.4304 42.0039C40.7321 42.0039 41.0338 41.8888 41.264 41.6587C44.2167 38.706 44.2167 33.9022 41.2642 30.9494L41.2642 30.9497Z" fill="white"/>
<path d="M15.6555 31.7032V40.9052C15.6555 41.5563 16.1831 42.0839 16.8342 42.0839H22.8392V30.5247H16.8342C16.1831 30.5247 15.6555 31.0523 15.6555 31.7034V31.7032Z" fill="white"/>
<path d="M36.4157 20.925C36.0045 20.7296 35.5173 20.7892 35.1648 21.0771L25.197 29.2186V43.3901L35.1648 51.5316C35.3795 51.7067 35.6439 51.7974 35.9108 51.7974C36.0826 51.7974 36.2549 51.7601 36.4157 51.6837C36.8271 51.4887 37.0892 51.0742 37.0892 50.6187V21.9898C37.0892 21.5346 36.8268 21.1198 36.4157 20.9247L36.4157 20.925Z" fill="white"/>
<circle cx="34.7904" cy="34.7904" r="34.7904" fill="url(#paint0_linear_1_2888)"/>
<path d="M48.8211 21.717C48.3608 21.2568 47.6146 21.2568 47.154 21.717C46.6938 22.1773 46.6938 22.9235 47.154 23.384C50.1521 26.3822 51.8035 30.3755 51.8035 34.6278C51.8035 38.8802 50.1522 42.8735 47.154 45.8716C46.6938 46.3319 46.6938 47.0781 47.154 47.5387C47.3842 47.7691 47.6858 47.8841 47.9876 47.8841C48.2893 47.8841 48.591 47.7691 48.8208 47.5387C52.2644 44.0951 54.1607 39.5099 54.1607 34.6281C54.161 29.7451 52.2646 25.1603 48.8211 21.7167L48.8211 21.717Z" fill="white"/>
<path d="M45.0425 25.4951C44.5822 25.0346 43.836 25.0349 43.3754 25.4948C42.9149 25.9551 42.9149 26.7013 43.3754 27.1619C47.492 31.2784 47.492 37.9767 43.3754 42.0935C42.9149 42.5537 42.9149 43.3 43.3754 43.7605C43.6056 43.9906 43.9073 44.1057 44.2087 44.1057C44.5104 44.1057 44.8121 43.9906 45.0422 43.7605C50.0782 38.7246 50.0782 30.5309 45.0425 25.4953L45.0425 25.4951Z" fill="white"/>
<path d="M41.2642 29.2729C40.8039 28.8127 40.0577 28.8127 39.5971 29.2729C39.1369 29.7332 39.1369 30.4794 39.5971 30.94C41.6302 32.9735 41.6302 36.2818 39.5971 38.3149C39.1369 38.7751 39.1369 39.5214 39.5971 39.9819C39.8273 40.212 40.129 40.3271 40.4304 40.3271C40.7321 40.3271 41.0338 40.212 41.264 39.9819C44.2167 37.0292 44.2167 32.2255 41.2642 29.2726L41.2642 29.2729Z" fill="white"/>
<path d="M15.6555 30.0266V39.2285C15.6555 39.8796 16.1831 40.4072 16.8342 40.4072H22.8392V28.848H16.8342C16.1831 28.848 15.6555 29.3756 15.6555 30.0267V30.0266Z" fill="white"/>
<path d="M36.4157 19.2483C36.0045 19.053 35.5173 19.1125 35.1648 19.4005L25.197 27.542V41.7135L35.1648 49.855C35.3795 50.0301 35.6439 50.1207 35.9108 50.1207C36.0826 50.1207 36.2549 50.0834 36.4157 50.0071C36.8271 49.812 37.0892 49.3975 37.0892 48.9421V20.3131C37.0892 19.8579 36.8268 19.4431 36.4157 19.2481L36.4157 19.2483Z" fill="white"/>
<defs>
<linearGradient id="paint0_linear_1_2888" x1="34.7904" y1="0" x2="34.7904" y2="69.5808" gradientUnits="userSpaceOnUse">
<stop stop-color="#7F4BF7"/>
<stop offset="1" stop-color="#4B2C91"/>
</linearGradient>
</defs>
</svg>
