<svg width="20" height="25" viewBox="0 0 20 25" fill="none" xmlns="http://www.w3.org/2000/svg">
<path d="M19.983 4.51526C19.9365 4.20325 19.6985 3.95277 19.3826 3.88246C18.844 3.7726 18.46 3.28921 18.46 2.73442C18.46 2.17964 18.845 1.69514 19.3826 1.58639C19.6985 1.51608 19.9364 1.2656 19.983 0.953588C20.0057 0.860206 20.0057 0.765725 19.983 0.664666C19.9289 0.290049 19.6141 0.00109861 19.229 0.00109861L2.69122 0C1.95243 0 1.27638 0.304306 0.791792 0.804189C0.299643 1.29637 0 1.98409 0 2.73335V21.8734C0 23.6004 1.37698 24.9978 3.07618 24.9978H3.84523V3.9067H2.69108C2.05289 3.9067 1.53693 3.38376 1.53693 2.73448C1.53693 2.0863 2.05181 1.56225 2.69108 1.56225H17.1823C17.0135 1.92149 16.9205 2.32029 16.9205 2.73448C16.9205 3.14867 17.0124 3.54744 17.1823 3.9067H5.38346V25H19.2289C19.6518 25 19.9979 24.6484 19.9979 24.2189V4.68792C19.9979 4.62529 19.9979 4.57036 19.9828 4.51653L19.983 4.51526ZM12.3062 21.0932H8.45969C8.03677 21.0932 7.69064 20.7416 7.69064 20.3121C7.69064 19.8825 8.03677 19.531 8.45969 19.531H12.3062C12.7292 19.531 13.0753 19.8825 13.0753 20.3121C13.0753 20.7416 12.7292 21.0932 12.3062 21.0932ZM15.3835 17.9688H8.4608C8.03788 17.9688 7.69174 17.6173 7.69174 17.1877C7.69174 16.7582 8.03788 16.4067 8.4608 16.4067H15.3835C15.8064 16.4067 16.1526 16.7582 16.1526 17.1877C16.1526 17.6173 15.8064 17.9688 15.3835 17.9688ZM17.6907 12.891C17.6907 13.5392 17.1758 14.0632 16.5366 14.0632H8.84487C8.20668 14.0632 7.69072 13.5403 7.69072 12.891V8.98423C7.69072 8.33605 8.2056 7.812 8.84487 7.812H16.5366C17.1748 7.812 17.6907 8.33495 17.6907 8.98423V12.891ZM9.22978 9.37544H16.1525V12.4998H9.22978V9.37544Z" fill="#C9C9C9"/>
</svg>
